<?xml version="1.0" encoding="UTF-8"?><svg id="a" xmlns="http://www.w3.org/2000/svg" viewBox="0 0 641.04 283.94"><defs><style>.b{fill:#f06847;}.c{fill:#203931;}</style></defs><path class="c" d="M142.04,271.14c0,2.12-.39,3.94-1.18,5.48s-1.82,2.8-3.11,3.79c-1.29.99-2.74,1.72-4.35,2.19-1.62.47-3.26.7-4.92.7h-8.37c-.36,0-.65-.29-.65-.65v-22.88c0-.36.29-.65.65-.65h8.09c1.71,0,3.39.2,5.05.6,1.66.4,3.14,1.06,4.44,1.98,1.3.92,2.34,2.16,3.14,3.7.8,1.55,1.2,3.46,1.2,5.74ZM135.97,271.14c0-1.37-.22-2.5-.67-3.4-.44-.9-1.04-1.62-1.78-2.15-.74-.53-1.58-.92-2.53-1.14-.94-.23-1.92-.34-2.92-.34h-2.25c-.36,0-.65.29-.65.65v12.84c0,.36.29.65.65.65h2.12c1.05,0,2.05-.12,3.02-.36.97-.24,1.82-.63,2.56-1.18.74-.55,1.33-1.27,1.78-2.19.44-.91.67-2.04.67-3.38Z"/><path class="c" d="M146.93,282.65v-22.88c0-.36.29-.65.65-.65h4.58c.36,0,.65.29.65.65v22.88c0,.36-.29.65-.65.65h-4.58c-.36,0-.65-.29-.65-.65Z"/><path class="c" d="M176.14,283.33c-1.58.39-3.31.58-5.17.58s-3.72-.31-5.34-.92c-1.63-.61-3.03-1.48-4.2-2.6-1.17-1.12-2.09-2.45-2.75-4.01-.66-1.56-.99-3.3-.99-5.21s.34-3.69,1.01-5.26c.67-1.57,1.6-2.91,2.78-4.01,1.18-1.1,2.57-1.95,4.17-2.54,1.59-.59,3.31-.89,5.16-.89s3.69.29,5.33.87c1.38.49,2.55,1.12,3.49,1.89.29.23.32.66.07.94l-2.78,3.17c-.24.27-.66.31-.93.07-.5-.45-1.09-.83-1.79-1.15-.93-.42-1.99-.63-3.18-.63-1.02,0-1.97.19-2.83.56-.87.38-1.62.9-2.25,1.57-.64.67-1.13,1.47-1.49,2.39-.35.92-.53,1.93-.53,3.02s.16,2.14.48,3.07c.32.93.79,1.74,1.42,2.41.63.67,1.4,1.2,2.32,1.57.92.38,1.97.56,3.16.56.68,0,1.33-.05,1.95-.15.45-.07.87-.18,1.27-.32.26-.09.44-.34.44-.62v-3.31c0-.36-.29-.65-.65-.65h-3.31c-.36,0-.65-.29-.65-.65v-3.41c0-.36.29-.65.65-.65h8.67c.36,0,.65.29.65.65v11.75c0,.25-.14.48-.36.58-1.1.53-2.36.97-3.79,1.32Z"/><path class="c" d="M186.09,282.64v-22.87c0-.36.29-.65.65-.65h4.57c.36,0,.65.29.65.65v22.87c0,.36-.29.65-.65.65h-4.57c-.36,0-.65-.29-.65-.65Z"/><path class="c" d="M208.32,264.76v17.89c0,.36-.29.65-.65.65h-4.53c-.36,0-.65-.29-.65-.65v-17.89c0-.36-.29-.65-.65-.65h-5.53c-.36,0-.65-.29-.65-.65v-3.68c0-.36.29-.65.65-.65h18.19c.36,0,.65.29.65.65v3.68c0,.36-.29.65-.65.65h-5.53c-.36,0-.65.29-.65.65Z"/><path class="c" d="M233.02,282.88l-1.55-3.92c-.1-.25-.34-.41-.61-.41h-8.46c-.27,0-.52.17-.61.42l-1.46,3.9c-.1.25-.34.42-.61.42h-4.92c-.47,0-.78-.47-.6-.9l9.59-22.87c.1-.24.34-.4.6-.4h4.8c.26,0,.5.16.6.4l9.5,22.87c.18.43-.14.9-.6.9h-5.07c-.27,0-.51-.16-.61-.41ZM226.07,267.24l-2.13,5.75c-.16.43.16.88.61.88h4.21c.45,0,.77-.45.61-.87l-2.08-5.75c-.21-.57-1.01-.57-1.22,0Z"/><path class="c" d="M242.71,282.64v-22.87c0-.36.29-.65.65-.65h4.57c.36,0,.65.29.65.65v17.78c0,.36.29.65.65.65h8.05c.36,0,.65.29.65.65v3.78c0,.36-.29.65-.65.65h-13.92c-.36,0-.65-.29-.65-.65Z"/><path class="c" d="M291.96,282.88l-1.55-3.92c-.1-.25-.34-.41-.61-.41h-8.46c-.27,0-.52.17-.61.42l-1.46,3.9c-.1.25-.34.42-.61.42h-4.92c-.47,0-.78-.47-.6-.9l9.59-22.87c.1-.24.34-.4.6-.4h4.8c.26,0,.5.16.6.4l9.5,22.87c.18.43-.14.9-.6.9h-5.07c-.27,0-.51-.16-.61-.41ZM285.02,267.24l-2.13,5.75c-.16.43.16.88.61.88h4.21c.45,0,.77-.45.61-.87l-2.08-5.75c-.21-.57-1.01-.57-1.22,0Z"/><path class="c" d="M314.91,264.89c-.26.27-.68.27-.95,0-.42-.4-.92-.74-1.5-1.01-.81-.38-1.59-.56-2.34-.56-.39,0-.78.03-1.18.1-.4.07-.76.2-1.08.39-.32.19-.59.44-.8.75-.22.31-.32.7-.32,1.18,0,.41.09.75.26,1.02.17.27.42.51.75.72.33.2.72.39,1.18.56.45.17.97.35,1.54.53.82.27,1.67.58,2.56.9.89.33,1.7.77,2.42,1.31.73.55,1.33,1.22,1.81,2.03.48.81.72,1.82.72,3.02,0,1.39-.26,2.59-.77,3.6-.51,1.01-1.2,1.85-2.07,2.51-.87.66-1.86,1.15-2.97,1.47-1.12.32-2.27.48-3.45.48-1.73,0-3.4-.3-5.02-.9-1.38-.51-2.56-1.22-3.54-2.1-.28-.25-.29-.68-.03-.94l2.87-2.92c.26-.27.69-.26.96,0,.52.51,1.14.95,1.87,1.32.97.49,1.93.73,2.89.73.43,0,.85-.05,1.26-.14.41-.09.77-.24,1.08-.44.31-.2.55-.48.73-.82.18-.34.27-.75.27-1.23s-.11-.84-.34-1.16c-.23-.32-.55-.61-.97-.87-.42-.26-.94-.5-1.57-.72-.63-.22-1.34-.45-2.13-.7-.77-.25-1.53-.55-2.27-.89-.74-.34-1.4-.78-1.98-1.31-.58-.53-1.05-1.18-1.4-1.95-.35-.76-.53-1.69-.53-2.78,0-1.34.27-2.49.82-3.45s1.26-1.74,2.15-2.36c.89-.61,1.89-1.06,3-1.35,1.12-.28,2.24-.43,3.38-.43,1.37,0,2.76.25,4.18.75,1.19.42,2.26,1.01,3.2,1.76.3.24.33.68.07.96l-2.76,2.91Z"/><path class="c" d="M336.12,264.89c-.26.27-.68.27-.95,0-.42-.4-.92-.74-1.5-1.01-.81-.38-1.59-.56-2.34-.56-.39,0-.78.03-1.18.1-.4.07-.76.2-1.08.39-.32.19-.59.44-.8.75-.22.31-.32.7-.32,1.18,0,.41.09.75.26,1.02.17.27.42.51.75.72.33.2.72.39,1.18.56.45.17.97.35,1.54.53.82.27,1.67.58,2.56.9.89.33,1.7.77,2.42,1.31.73.55,1.33,1.22,1.81,2.03.48.81.72,1.82.72,3.02,0,1.39-.26,2.59-.77,3.6-.51,1.01-1.2,1.85-2.07,2.51-.87.66-1.86,1.15-2.97,1.47-1.12.32-2.27.48-3.45.48-1.73,0-3.4-.3-5.02-.9-1.38-.51-2.56-1.22-3.54-2.1-.28-.25-.29-.68-.03-.94l2.87-2.92c.26-.27.69-.26.96,0,.52.51,1.14.95,1.87,1.32.97.49,1.93.73,2.89.73.43,0,.85-.05,1.26-.14.41-.09.77-.24,1.08-.44.31-.2.55-.48.73-.82.18-.34.27-.75.27-1.23s-.11-.84-.34-1.16c-.23-.32-.55-.61-.97-.87-.42-.26-.94-.5-1.57-.72-.63-.22-1.34-.45-2.13-.7-.77-.25-1.53-.55-2.27-.89-.74-.34-1.4-.78-1.98-1.31-.58-.53-1.05-1.18-1.4-1.95-.35-.76-.53-1.69-.53-2.78,0-1.34.27-2.49.82-3.45s1.26-1.74,2.15-2.36c.89-.61,1.89-1.06,3-1.35,1.12-.28,2.24-.43,3.38-.43,1.37,0,2.76.25,4.18.75,1.19.42,2.26,1.01,3.2,1.76.3.24.33.68.07.96l-2.76,2.91Z"/><path class="c" d="M344.06,282.64v-22.87c0-.36.29-.65.65-.65h14.95c.36,0,.65.29.65.65v3.61c0,.36-.29.65-.65.65h-9.32c-.36,0-.65.29-.65.65v3.27c0,.36.29.65.65.65h8.73c.36,0,.65.29.65.65v3.37c0,.36-.29.65-.65.65h-8.73c-.36,0-.65.29-.65.65v3.72c0,.36.29.65.65.65h9.93c.36,0,.65.29.65.65v3.68c0,.36-.29.65-.65.65h-15.56c-.36,0-.65-.29-.65-.65Z"/><path class="c" d="M376.16,264.76v17.89c0,.36-.29.65-.65.65h-4.53c-.36,0-.65-.29-.65-.65v-17.89c0-.36-.29-.65-.65-.65h-5.52c-.36,0-.65-.29-.65-.65v-3.68c0-.36.29-.65.65-.65h18.19c.36,0,.65.29.65.65v3.68c0,.36-.29.65-.65.65h-5.53c-.36,0-.65.29-.65.65Z"/><path class="c" d="M419.67,266.56c0,1.41-.26,2.6-.79,3.57-.52.97-1.23,1.75-2.12,2.34-.89.59-1.91,1.02-3.07,1.3-1.16.27-2.37.41-3.62.41h-2.25c-.36,0-.65.29-.65.65v7.81c0,.36-.29.65-.65.65h-4.53c-.36,0-.65-.29-.65-.65v-22.87c0-.36.29-.65.65-.65h8.23c1.32,0,2.56.13,3.7.39,1.15.26,2.15.68,3,1.26.85.58,1.52,1.34,2.01,2.29.49.94.73,2.11.73,3.5ZM413.84,266.6c0-.57-.11-1.04-.34-1.4-.23-.36-.54-.65-.92-.85-.39-.2-.83-.34-1.31-.41-.49-.07-1-.1-1.52-.1h-1.91c-.36,0-.65.29-.65.65v4.4c0,.36.29.65.65.65h1.81c.55,0,1.07-.05,1.57-.14.5-.09.95-.25,1.35-.48.4-.23.71-.53.94-.9.23-.38.34-.85.34-1.42Z"/><path class="c" d="M436.97,282.96l-4.88-8.92c-.11-.21-.33-.34-.57-.34h-.95c-.36,0-.65.29-.65.65v8.29c0,.36-.29.65-.65.65h-4.4c-.36,0-.65-.29-.65-.65v-22.87c0-.36.29-.65.65-.65h8.57c1.16,0,2.29.12,3.4.36,1.1.24,2.09.64,2.97,1.21.88.57,1.58,1.32,2.1,2.25.52.93.79,2.09.79,3.48,0,1.64-.44,3.02-1.33,4.13-.89,1.12-2.12,1.91-3.69,2.39h0s5.71,9.35,5.71,9.35c.27.43-.05.99-.56.99h-5.28c-.24,0-.46-.13-.57-.34ZM436.92,266.53c0-.57-.12-1.03-.36-1.38-.24-.35-.55-.63-.93-.82-.38-.19-.8-.32-1.27-.39-.47-.07-.92-.1-1.36-.1h-2.47c-.36,0-.65.29-.65.65v4.33c0,.36.29.65.65.65h2.13c.48,0,.97-.04,1.48-.12.5-.08.96-.22,1.37-.43.41-.2.75-.5,1.01-.89.26-.39.39-.89.39-1.5Z"/><path class="c" d="M473.08,271.11c0,1.91-.33,3.66-.99,5.24-.66,1.58-1.58,2.94-2.75,4.06-1.17,1.13-2.57,2-4.18,2.61-1.62.61-3.37.92-5.26.92s-3.64-.31-5.24-.92c-1.61-.61-2.99-1.49-4.17-2.61-1.17-1.13-2.09-2.48-2.75-4.06-.66-1.58-.99-3.33-.99-5.24s.33-3.68.99-5.24c.66-1.56,1.58-2.89,2.75-3.98,1.17-1.09,2.56-1.93,4.17-2.53,1.6-.59,3.35-.89,5.24-.89s3.64.3,5.26.89c1.62.59,3.01,1.43,4.18,2.53,1.17,1.09,2.09,2.42,2.75,3.98.66,1.56.99,3.31.99,5.24ZM466.83,271.11c0-1.05-.17-2.03-.51-2.94-.34-.91-.81-1.69-1.42-2.34-.6-.65-1.33-1.16-2.19-1.54-.85-.38-1.79-.56-2.82-.56s-1.96.19-2.8.56c-.84.38-1.57.89-2.19,1.54-.61.65-1.09,1.43-1.42,2.34-.33.91-.5,1.89-.5,2.94s.17,2.1.51,3.02.81,1.71,1.42,2.37c.6.66,1.33,1.18,2.17,1.55.84.38,1.78.56,2.8.56s1.96-.19,2.8-.56c.84-.38,1.57-.89,2.19-1.55.61-.66,1.09-1.45,1.43-2.37s.51-1.93.51-3.02Z"/><path class="c" d="M500.53,271.14c0,2.12-.39,3.94-1.18,5.48s-1.82,2.8-3.11,3.79c-1.29.99-2.74,1.72-4.35,2.19-1.62.47-3.26.7-4.92.7h-8.36c-.36,0-.65-.29-.65-.65v-22.87c0-.36.29-.65.65-.65h8.09c1.71,0,3.39.2,5.05.6,1.66.4,3.14,1.06,4.44,1.98,1.3.92,2.34,2.16,3.14,3.7.8,1.55,1.2,3.46,1.2,5.74ZM494.45,271.14c0-1.37-.22-2.5-.67-3.4-.44-.9-1.04-1.62-1.78-2.15-.74-.53-1.58-.92-2.53-1.14-.94-.23-1.92-.34-2.92-.34h-2.25c-.36,0-.65.29-.65.65v12.83c0,.36.29.65.65.65h2.11c1.05,0,2.05-.12,3.02-.36.97-.24,1.82-.63,2.56-1.18.74-.55,1.33-1.27,1.78-2.19.44-.91.67-2.04.67-3.38Z"/><path class="c" d="M525.17,278.16c-.49,1.2-1.19,2.22-2.1,3.07-.91.85-2.01,1.52-3.3,2-1.29.48-2.71.72-4.29.72s-3.03-.24-4.3-.72c-1.28-.48-2.36-1.14-3.24-2-.89-.85-1.57-1.88-2.05-3.07-.48-1.2-.72-2.52-.72-3.98v-14.41c0-.36.29-.65.65-.65h4.5c.36,0,.65.29.65.65v13.93c0,.66.09,1.29.26,1.88.17.59.43,1.12.79,1.59.35.47.82.84,1.4,1.11.58.27,1.28.41,2.1.41s1.52-.14,2.1-.41c.58-.27,1.05-.64,1.42-1.11.36-.47.63-1,.79-1.59.16-.59.24-1.22.24-1.88v-13.93c0-.36.29-.65.65-.65h4.53c.36,0,.65.29.65.65v14.41c0,1.46-.24,2.78-.73,3.98Z"/><path class="c" d="M548.95,282.87c-1.57.72-3.38,1.08-5.43,1.08-1.87,0-3.59-.31-5.17-.92-1.58-.61-2.95-1.49-4.11-2.61-1.16-1.13-2.07-2.48-2.73-4.05-.66-1.57-.99-3.3-.99-5.19s.34-3.69,1.01-5.26c.67-1.57,1.6-2.91,2.78-4.01,1.18-1.1,2.57-1.95,4.17-2.54,1.59-.59,3.31-.89,5.16-.89,1.71,0,3.39.3,5.04.9,1.42.52,2.6,1.24,3.56,2.17.26.25.26.67,0,.93l-3.01,3.01c-.26.26-.68.24-.94-.02-.47-.49-1.04-.87-1.71-1.15-.89-.36-1.8-.55-2.73-.55-1.02,0-1.96.19-2.82.56-.85.38-1.59.89-2.2,1.55-.61.66-1.09,1.44-1.43,2.34-.34.9-.51,1.88-.51,2.95s.17,2.09.51,3c.34.91.81,1.69,1.42,2.34.6.65,1.33,1.16,2.17,1.52.84.36,1.76.55,2.77.55,1.16,0,2.17-.23,3.04-.68.65-.34,1.2-.76,1.66-1.25.25-.27.66-.3.93-.05l3.09,2.91c.27.25.27.67.02.93-.98,1-2.15,1.81-3.51,2.43Z"/><path class="c" d="M566.57,264.76v17.89c0,.36-.29.65-.65.65h-4.54c-.36,0-.65-.29-.65-.65v-17.89c0-.36-.29-.65-.65-.65h-5.53c-.36,0-.65-.29-.65-.65v-3.69c0-.36.29-.65.65-.65h18.2c.36,0,.65.29.65.65v3.69c0,.36-.29.65-.65.65h-5.53c-.36,0-.65.29-.65.65Z"/><path class="c" d="M577.09,282.65v-22.88c0-.36.29-.65.65-.65h4.57c.36,0,.65.29.65.65v22.88c0,.36-.29.65-.65.65h-4.57c-.36,0-.65-.29-.65-.65Z"/><path class="c" d="M614.17,271.11c0,1.91-.33,3.66-.99,5.24-.66,1.58-1.58,2.94-2.75,4.06-1.17,1.13-2.57,2-4.18,2.61-1.62.61-3.37.92-5.26.92s-3.64-.31-5.24-.92c-1.61-.61-2.99-1.49-4.17-2.61-1.17-1.13-2.09-2.48-2.75-4.06-.66-1.58-.99-3.33-.99-5.24s.33-3.68.99-5.24c.66-1.56,1.58-2.89,2.75-3.98,1.17-1.09,2.56-1.93,4.17-2.53,1.6-.59,3.35-.89,5.24-.89s3.64.3,5.26.89c1.62.59,3.01,1.43,4.18,2.53,1.17,1.09,2.09,2.42,2.75,3.98.66,1.56.99,3.31.99,5.24ZM607.92,271.11c0-1.05-.17-2.03-.51-2.94-.34-.91-.81-1.69-1.42-2.34-.6-.65-1.33-1.16-2.19-1.54-.85-.38-1.79-.56-2.82-.56s-1.96.19-2.8.56c-.84.38-1.57.89-2.19,1.54-.61.65-1.09,1.43-1.42,2.34-.33.91-.5,1.89-.5,2.94s.17,2.1.51,3.02.81,1.71,1.42,2.37c.6.66,1.33,1.18,2.17,1.55.84.38,1.78.56,2.8.56s1.96-.19,2.8-.56c.84-.38,1.57-.89,2.19-1.55.61-.66,1.09-1.45,1.43-2.37s.51-1.93.51-3.02Z"/><path class="c" d="M634.78,283.3c-.23,0-.44-.12-.55-.31l-9.54-15.5h-.1l.13,15.15c0,.36-.29.66-.65.66h-4.36c-.36,0-.65-.29-.65-.65v-22.88c0-.36.29-.65.65-.65h5.65c.23,0,.44.12.55.31l9.51,15.47h.1l-.13-15.12c0-.36.29-.66.65-.66h4.36c.36,0,.65.29.65.65v22.88c0,.36-.29.65-.65.65h-5.61Z"/><path class="c" d="M89.35,153.63c-4.29-3.07-8.94-5.58-14-7.52-5.06-1.91-9.9-3.62-14.47-5.06-4.47-1.45-7.67-2.64-9.66-3.62-1.99-.96-3-2.4-3-4.31,0-2.07.98-3.54,2.89-4.44,1.94-.9,4.47-1.34,7.6-1.34,3.38,0,7.18.93,11.39,2.79,2.58,1.16,4.94,2.64,7.03,4.44,2.22,1.91,5.53,1.83,7.6-.26l18.63-19.02c2.35-2.38,2.02-6.25-.65-8.29-5.45-4.19-11.55-7.54-18.24-10.05-8.73-3.23-17.34-4.86-25.76-4.86-6.25,0-12.58.78-18.97,2.35-6.41,1.58-12.14,4.13-17.26,7.7-5.14,3.54-9.33,8.11-12.58,13.67-3.25,5.56-4.88,12.3-4.88,20.28,0,5.66.9,10.52,2.71,14.57,1.81,4.03,4.26,7.52,7.34,10.41,3.07,2.89,6.59,5.32,10.57,7.31,3.98,2.02,8.14,3.72,12.48,5.17,4.44,1.45,8.14,2.71,11.11,3.8,2.95,1.11,5.27,2.09,6.95,3,1.68.9,2.87,1.78,3.54,2.64.65.83.98,1.86.98,3.07,0,2.3-.98,3.85-2.97,4.7-1.99.85-4.18,1.27-6.61,1.27-5.3,0-10.44-1.27-15.45-3.8-3.13-1.58-5.89-3.31-8.24-5.19-2.27-1.81-5.53-1.58-7.49.57L1.45,203.68c-2.25,2.43-1.83,6.28.85,8.24,1.94,1.37,3.98,2.69,6.15,3.93,4.11,2.35,8.47,4.39,13.13,6.12,4.62,1.73,9.46,3.05,14.44,3.95,5.01.9,10.1,1.34,15.27,1.34,6.51,0,12.89-.93,19.17-2.79,6.25-1.89,11.89-4.7,16.9-8.5,4.99-3.8,9.04-8.55,12.12-14.29,3.05-5.71,4.6-12.43,4.6-20.15,0-6.61-1.4-12.17-4.16-16.61-2.76-4.47-6.3-8.24-10.57-11.29Z"/><path class="c" d="M236.47,95.71h-32.16c-3.06,0-5.54,2.45-5.54,5.49v32.36c0,3.04-2.45,5.49-5.49,5.49h-24.04c-3.04,0-5.53-2.45-5.53-5.49v-32.36c0-3.04-2.45-5.49-5.51-5.49h-31.8c-3.04,0-5.53,2.45-5.53,5.49v116.95c0,3.04,2.49,5.49,5.53,5.49h31.98c3.06,0,5.51-2.45,5.51-5.49v-37.59c0-3.06,2.49-5.54,5.53-5.54h24.04c3.04,0,5.51,2.49,5.51,5.54v37.59c0,3.04,2.47,5.49,5.53,5.49h31.98c3.06,0,5.51-2.45,5.51-5.49v-116.95c0-3.04-2.45-5.49-5.51-5.49Z"/><path class="c" d="M396.87,131.21c-3.62-8.24-8.6-15.27-15.01-21.06-6.38-5.79-13.9-10.23-22.58-13.38-8.68-3.13-18.06-4.68-28.19-4.68s-19.53,1.55-28.19,4.68c-8.68,3.15-16.2,7.6-22.5,13.38-6.33,5.79-11.29,12.82-14.91,21.06-3.62,8.27-5.43,17.52-5.43,27.75,0,7.26.9,14.06,2.74,20.41.72,2.61,1.63,5.14,2.69,7.6,1.21,2.82,2.56,5.48,4.08,8.01,3,5.09,6.59,9.61,10.83,13.59,6.3,5.97,13.82,10.57,22.5,13.82,8.66,3.26,18.06,4.88,28.19,4.88s19.51-1.63,28.19-4.88c8.68-3.26,16.2-7.85,22.58-13.82,6.41-5.97,11.39-13.15,15.01-21.6,3.62-8.42,5.43-17.78,5.43-28.01s-1.81-19.48-5.43-27.75ZM312.92,138.98c2.22-2.35,4.91-4.19,8.04-5.5,3.13-1.34,6.51-1.99,10.13-1.99s6.95.65,10.02,1.99c3.07,1.32,5.76,3.15,8.04,5.5,2.3,2.35,4.08,5.24,5.35,8.68,1.27,3.44,1.89,7.18,1.89,11.29s-.62,8.06-1.89,11.58c-1.27,3.49-3.05,6.49-5.35,9.02-2.09,2.33-4.55,4.19-7.31,5.56-.23.1-.49.23-.72.34-3.07,1.37-6.41,2.07-10.02,2.07s-7-.7-10.13-2.07c-3.13-1.4-5.81-3.36-8.04-5.89-2.25-2.53-3.98-5.53-5.24-9.02-1.27-3.51-1.91-7.36-1.91-11.58s.65-7.85,1.91-11.29c1.21-3.28,2.84-6.05,4.96-8.35.08-.1.18-.23.28-.34Z"/><path class="c" d="M532.02,215.23l-24.05-38.42c-1.6-2.58-.88-5.99,1.7-7.57,4.91-2.97,8.81-6.74,11.73-11.29,3.85-5.94,5.79-12.84,5.79-20.7s-1.52-14.78-4.52-20.15c-3.02-5.35-6.95-9.64-11.83-12.82-4.88-3.2-10.44-5.43-16.64-6.69-6.2-1.27-12.45-1.89-18.71-1.89h-49.61c-3.05,0-5.53,2.45-5.53,5.5v116.94c0,3.05,2.48,5.5,5.53,5.5h30.72c3.05,0,5.5-2.45,5.5-5.5v-40.23h1.27l22.97,42.84c.96,1.78,2.82,2.89,4.86,2.89h36.15c4.34,0,6.98-4.75,4.68-8.42ZM483.55,144.59c-1.03,1.37-2.27,2.45-3.77,3.26-1.5.78-3.1,1.29-4.83,1.52-1.76.26-3.33.36-4.75.36h-2.92c-3.05,0-5.53-2.45-5.53-5.5v-9.59c0-3.05,2.48-5.5,5.53-5.5h4.7c1.32,0,2.74.08,4.31.26,1.55.18,2.97.62,4.29,1.27,1.32.67,2.4,1.65,3.23,3,.85,1.32,1.27,3.13,1.27,5.4s-.52,4.13-1.53,5.53Z"/><path class="c" d="M634.98,187.87h-39.58c-3.02,0-5.5-2.45-5.5-5.5v-.9c0-3.05,2.48-5.53,5.5-5.53h33.61c3.05,0,5.53-2.45,5.53-5.5v-22.4c0-3.05-2.48-5.53-5.53-5.53h-33.61c-1.5,0-2.89-.62-3.88-1.6-1.01-1.01-1.63-2.38-1.63-3.9,0-3.05,2.48-5.5,5.5-5.5h36.51c3.05,0,5.53-2.48,5.53-5.53v-24.75c0-3.05-2.48-5.5-5.53-5.5h-77c-3.02,0-5.5,2.45-5.5,5.5v116.94c0,3.05,2.48,5.5,5.5,5.5h80.07c3.05,0,5.53-2.45,5.53-5.5v-24.78c0-3.02-2.48-5.5-5.53-5.5Z"/><path class="b" d="M95.41,35.19c0-5.39.95-10.26,2.85-14.6,1.9-4.34,4.52-8.04,7.85-11.08,3.33-3.04,7.28-5.39,11.84-7.04,4.57-1.65,9.51-2.47,14.84-2.47s10.27.82,14.84,2.47c4.57,1.65,8.53,3.99,11.89,7.04,3.36,3.04,5.99,6.74,7.89,11.08,1.9,4.34,2.85,9.21,2.85,14.6s-.95,10.31-2.85,14.74c-1.9,4.44-4.53,8.23-7.89,11.37-3.36,3.14-7.32,5.56-11.89,7.28-4.57,1.71-9.51,2.57-14.84,2.57s-10.27-.86-14.84-2.57c-4.57-1.71-8.51-4.14-11.84-7.28-3.33-3.14-5.94-6.93-7.85-11.37-1.9-4.44-2.85-9.35-2.85-14.74ZM119.47,35.19c0,2.22.33,4.25,1,6.09.66,1.84,1.58,3.42,2.76,4.76,1.17,1.33,2.58,2.36,4.23,3.09,1.65.73,3.42,1.09,5.33,1.09s3.66-.36,5.28-1.09c1.62-.73,3.03-1.76,4.23-3.09,1.21-1.33,2.14-2.92,2.81-4.76.66-1.84,1-3.87,1-6.09s-.33-4.14-1-5.94c-.67-1.81-1.6-3.33-2.81-4.57-1.21-1.24-2.61-2.2-4.23-2.9-1.62-.7-3.38-1.05-5.28-1.05s-3.68.35-5.33,1.05c-1.65.7-3.06,1.66-4.23,2.9-1.17,1.24-2.09,2.76-2.76,4.57-.67,1.81-1,3.79-1,5.94Z"/><path class="b" d="M183.55,1.9h16.55c1.37,0,2.62.74,3.29,1.93l18.13,32.22h.38l-.84-30.26c-.06-2.13,1.65-3.88,3.78-3.88h13.83c2.09,0,3.78,1.69,3.78,3.78v59.78c0,2.09-1.69,3.78-3.78,3.78h-17.16c-1.35,0-2.59-.72-3.27-1.88l-17.55-30.26h-.38l.84,28.26c.06,2.13-1.65,3.89-3.78,3.89h-13.82c-2.09,0-3.78-1.69-3.78-3.78V5.68c0-2.09,1.69-3.78,3.78-3.78Z"/></svg>